# xmcd
# 
# Track frame offsets:
#     150
#     19676
#     40940
#     56561
#     78120
#     95580
#     122033
#     138798
#     161283
#     190763
#     212367
#     238598
# 
# Disc length: 3457
# 
# Revision: 3
# Processed by: cddbd v1.5.2PL0 Copyright (c) Steve Scherf et al.
# Submitted via: fre:ac v1.0.31
# 
DISCID=8d0d7f0c
DTITLE=Taj Mahal - Maestro
DYEAR=2008
DGENRE=Blues
TTITLE0=Scratch My Back
TTITLE1=Never Let You Go
TTITLE2=Dust Me Down
TTITLE3=Further on Down the Road
TTITLE4=Black Man, Brown Man
TTITLE5=Zanzibar
TTITLE6=TV Mama
TTITLE7=I Can Make You Happy
TTITLE8=Slow Drag
TTITLE9=Hello Josephine
TTITLE10=Strong Man Holler
TTITLE11=Diddy Wah Diddy
EXTD=
EXTT0=
EXTT1=
EXTT2=
EXTT3=
EXTT4=
EXTT5=
EXTT6=
EXTT7=
EXTT8=
EXTT9=
EXTT10=
EXTT11=
PLAYORDER=
